<svg width="831" height="831" viewBox="0 0 831 831" fill="none" xmlns="http://www.w3.org/2000/svg">
<circle cx="415.5" cy="415.5" r="415.5" fill="#FF7A00"/>
<path d="M268.187 301.679V184.086C268.116 184.309 268.187 183.853 268.187 184.086C276.01 159.493 282.077 144.315 298.891 124.613C313.884 107.043 324.662 98.1538 345.515 88.2229C361.762 80.4856 372.066 78.3621 389.865 75.7139C410.511 72.6423 422.852 71.5867 443.313 75.7139C463.606 79.8074 474.682 85.1707 492.212 96.1832C514.815 110.383 526.658 121.502 541.111 143.945C550.298 158.212 553.972 167.361 559.193 183.4C559.193 183.162 559.267 183.627 559.193 183.4L559.306 300.666C559.306 301.522 559.763 302.247 560.523 302.639C567.053 306.01 598.325 322.369 617.302 336.129C639.964 352.561 651.489 363.579 670.75 383.891C691.414 405.683 701.72 419.263 718.511 444.162C730.095 461.337 738.474 470.273 745.804 489.649C749.236 498.721 751.308 503.921 752.627 513.53C753.895 522.769 754.368 528.249 752.627 537.411C750.841 546.809 748.654 552.076 743.53 560.154C740.483 564.957 738.395 567.447 734.432 571.526C728.923 577.198 725.302 579.984 718.511 584.035C711.851 588.009 707.974 593.23 700.317 591.996C693.74 590.936 692.133 585.573 686.67 581.761C683.882 579.815 678.969 576.655 675.084 574.195C674.564 573.915 673.228 573.1 670.75 571.526C667.381 569.387 670.524 571.308 675.084 574.195C677.235 575.351 665.466 567.356 662.789 565.84C656.68 562.38 652.54 561.873 645.732 560.154C639.407 558.558 630.142 557.41 626.116 556.957C624.976 556.829 624.104 555.882 624.075 554.735L623.039 513.286C623.01 512.13 623.849 511.133 624.989 510.937C628.418 510.35 635.485 508.945 640.032 506.713C640.041 506.709 640.05 506.704 640.058 506.698C647.764 501.094 652.668 491.258 648.144 482.872C647.443 481.572 646.642 480.384 645.732 479.414C640.422 473.761 635.25 472.262 627.537 471.454C626.215 471.316 624.515 471.315 623.142 471.35C621.827 471.383 620.714 470.339 620.714 469.023V421.557C620.714 421.464 620.718 421.379 620.729 421.287C620.902 419.812 622.421 406.182 620.714 397.537C619.815 392.988 619.077 390.448 617.302 386.165C614.94 380.466 612.93 377.538 609.342 372.519C604.407 365.617 601.112 361.987 594.558 356.598L594.255 356.349C588.729 351.804 585.382 349.051 578.638 346.364C570.833 343.254 557.479 342.961 557.042 342.952L557.011 342.952H263.783C263.686 342.952 263.594 342.958 263.498 342.971C262.276 343.133 253.289 344.374 247.717 346.364C240.039 349.105 235.941 351.572 229.522 356.598C222.842 361.829 219.084 365.231 214.739 372.519C211.782 377.478 210.671 380.623 209.053 386.165C207.895 390.129 206.958 396.318 206.802 397.38C206.786 397.486 206.779 397.591 206.779 397.699V471.215C206.779 471.351 206.676 471.464 206.541 471.477L196.417 472.437C190.762 472.974 185.68 476.113 182.667 480.928C179.281 486.342 178.844 493.215 182.283 498.596C184.157 501.529 186.141 504.125 187.446 504.432C192.177 505.545 198.985 506.238 202.393 506.536C203.583 506.64 204.504 507.633 204.504 508.828V552.718C204.504 553.75 203.81 554.652 202.811 554.912C200.106 555.617 194.72 557.001 190.858 557.88C184.234 559.387 180.282 559.257 173.8 561.292C168.292 563.021 165.258 564.279 160.154 566.978C154.492 569.971 151.436 571.984 146.508 576.075C142.159 579.686 141.101 583.371 136.273 586.31C133.384 588.068 131.67 589.313 128.313 589.721C125.196 590.101 123.38 589.417 120.353 588.584C117.248 587.73 115.553 586.837 112.815 585.395L112.392 585.172C105.946 581.782 102.812 578.898 97.6089 573.801C94.055 570.319 90.0211 564.916 87.5182 561.388C85.874 559.07 84.3324 556.684 82.9434 554.205C81.3619 551.382 79.3164 547.439 78.2767 544.234C75.7948 536.583 76.0488 531.807 76.0024 523.765C75.9533 515.28 76.6676 510.489 78.2767 502.158C79.5842 495.389 80.5408 491.605 82.8255 485.1C85.8789 476.407 88.4541 471.776 92.8823 463.813L93.0601 463.494C99.8852 451.22 105.039 445.113 113.529 433.927C121.539 423.374 126.345 417.684 135.136 407.772C150.138 390.856 159.312 382.006 176.075 366.833C185.181 358.59 190.317 353.978 199.955 346.364C210.691 337.883 216.831 333.22 228.385 325.894C238.294 319.612 243.997 316.259 254.54 311.111C258.345 309.254 263.932 306.788 266.121 305.83C266.713 305.571 267.166 305.075 267.371 304.462L268.07 302.364C268.147 302.132 268.187 301.923 268.187 301.679Z" fill="black"/>
<path d="M347.072 214.779C336.155 226.909 344.343 245.711 360.718 245.711C375.577 245.711 384.372 224.787 373.455 214.173C367.086 207.501 353.137 208.108 347.072 214.779Z" fill="#FF7A00"/>
<path d="M452.603 215.386C445.325 222.664 445.022 229.942 451.39 239.039C460.184 251.776 482.928 243.891 482.928 227.819C482.928 211.14 464.429 203.559 452.603 215.386Z" fill="#FF7A00"/>
<path d="M232.931 398.143C232.931 380.608 247.146 366.394 264.681 366.394H565.081C582.616 366.394 596.83 380.608 596.83 398.143V534.911C596.83 552.445 582.616 566.66 565.081 566.66H264.681C247.146 566.66 232.931 552.445 232.931 534.911V398.143Z" fill="black"/>
<path d="M446.722 466.466C446.722 485.307 431.448 500.581 412.607 500.581C393.765 500.581 378.491 485.307 378.491 466.466C378.491 447.624 393.765 432.35 412.607 432.35C431.448 432.35 446.722 447.624 446.722 466.466Z" fill="#FF7A00"/>
<path d="M293.893 754.975L422.302 718.894C424.879 718.17 427.612 718.219 430.161 719.037L537.553 753.484C543.677 755.448 550.068 756.448 556.499 756.448H567.604C574.021 756.448 580.26 754.336 585.358 750.438C592.589 744.908 596.83 736.189 596.83 727.086C596.83 721.083 595.01 715.135 591.609 710.189L591.313 709.758C586.82 703.222 580.017 698.632 572.275 696.912L566.773 695.689C564.841 695.259 562.998 694.496 561.328 693.433L559.219 692.092C554.485 689.079 552.123 683.439 553.299 677.951C554.212 673.691 557.135 670.139 561.139 668.423L564.919 666.803C568.677 665.192 572.819 664.693 576.853 665.366L583.745 666.514C588.644 667.331 593.376 668.949 597.75 671.304L600.886 672.993C604.235 674.796 607.348 677.004 610.156 679.569L614.24 683.297C625.114 693.226 640.774 695.912 654.335 690.174C659.159 688.134 663.504 685.11 667.094 681.296L669.547 678.689C676.287 671.527 680.991 662.588 683.125 652.987C685.424 642.642 684.729 631.755 681.081 621.805L680.234 619.497C676.259 608.655 669.414 599.095 660.43 591.839L660.05 591.532C649.971 583.392 637.706 578.421 624.803 577.248L620.981 576.901C611.777 576.064 602.497 576.865 593.572 579.268L577.498 583.596L379.274 645.191C377.511 645.739 375.611 644.929 374.785 643.277C374.254 642.217 374.254 640.968 374.785 639.907L375.817 637.843C376.08 637.317 376.217 636.737 376.217 636.149C376.217 634.624 375.302 633.247 373.896 632.656L286.749 596.015C279.69 593.047 272.409 590.639 264.972 588.812L223.455 578.615C215.456 576.65 207.136 576.375 199.024 577.806C194.353 578.63 189.799 580.012 185.458 581.923L174.987 586.529C167.466 589.839 160.776 594.783 155.405 601.002C146.73 611.047 141.957 623.877 141.957 637.15V638.076C141.957 646.387 143.749 654.601 147.212 662.156L147.589 662.979C152.095 672.81 159.096 681.289 167.895 687.575L174.302 692.15C176.974 694.06 179.983 695.449 183.169 696.245C191.539 698.338 200.403 696.172 206.866 690.456L219.249 679.501C223.788 675.486 228.985 672.283 234.611 670.032L241.834 667.143C246.418 665.31 251.429 664.819 256.281 665.729L260.805 666.577C264.796 667.325 268.317 669.653 270.57 673.032C273.946 678.095 273.904 684.754 270.528 689.818C268.313 693.14 264.858 695.501 260.951 696.323L255.478 697.475C248.984 698.843 243.157 702.399 238.972 707.55L236.583 710.491C232.749 715.208 230.657 721.102 230.657 727.18C230.657 736.205 235.256 744.607 242.857 749.472L247.88 752.687C255.128 757.326 263.755 759.321 272.304 758.334L283.247 757.072C286.845 756.656 290.406 755.955 293.893 754.975Z" fill="black"/>
<path fill-rule="evenodd" clip-rule="evenodd" d="M367.483 188.993H307.318C296.382 188.993 287.516 197.859 287.516 208.795V242.638C287.516 253.574 296.382 262.44 307.318 262.44H367.483C378.419 262.44 387.285 253.574 387.285 242.638V208.795C387.285 197.859 378.42 188.993 367.483 188.993ZM307.318 173.072C287.589 173.072 271.596 189.066 271.596 208.795V242.638C271.596 262.367 287.589 278.36 307.318 278.36H367.483C387.212 278.36 403.206 262.367 403.206 242.638V208.795C403.206 189.066 387.212 173.072 367.483 173.072H307.318Z" fill="#FF7A00"/>
<path fill-rule="evenodd" clip-rule="evenodd" d="M517.895 188.993H457.73C446.794 188.993 437.928 197.859 437.928 208.795V242.638C437.928 253.574 446.793 262.44 457.73 262.44H517.895C528.831 262.44 537.697 253.574 537.697 242.638V208.795C537.697 197.859 528.831 188.993 517.895 188.993ZM457.73 173.072C438.001 173.072 422.007 189.066 422.007 208.795V242.638C422.007 262.367 438.001 278.36 457.73 278.36H517.895C537.624 278.36 553.617 262.367 553.617 242.638V208.795C553.617 189.066 537.624 173.072 517.895 173.072H457.73Z" fill="#FF7A00"/>
<path fill-rule="evenodd" clip-rule="evenodd" d="M422.007 225.716H403.206V208.795H422.007V225.716Z" fill="#FF7A00"/>
</svg>
