<svg width="527" height="342" viewBox="0 0 527 342" fill="none" xmlns="http://www.w3.org/2000/svg">
<path d="M209.758 3.23049C211.091 5.23049 211.491 7.23049 210.825 7.89715C209.491 9.09715 192.958 7.63049 176.291 4.69715C169.625 3.49715 166.558 3.36382 167.491 4.29715C171.625 8.43049 166.425 8.83049 146.158 6.29715C139.225 5.49715 132.291 5.23049 130.958 5.63049C128.825 6.56382 128.691 6.83049 130.825 8.96382C132.025 10.2972 132.958 11.7638 132.958 12.2972C132.958 13.3638 121.091 16.5638 106.825 19.2305C90.6915 22.2972 77.8915 29.4972 86.4248 30.8305C88.9581 31.0972 88.1581 32.0305 81.4915 36.4305C69.8915 44.1638 54.5581 60.5638 47.7581 72.5638C43.3581 80.2971 40.4248 87.8971 36.5581 102.43C27.0915 138.297 16.5581 161.764 5.35814 172.83C-1.04186 178.964 -1.70853 182.964 3.35814 183.63C5.62481 184.03 7.89147 182.564 11.6248 178.564C16.5581 173.23 27.7581 152.03 32.2915 139.23C33.6248 135.497 35.2248 132.03 35.8915 131.23C36.4248 130.564 36.9581 171.364 36.9581 221.897C36.9581 278.43 37.4915 315.764 38.2915 318.697C39.8915 324.564 45.3581 329.764 52.2915 331.897C58.9581 334.03 81.0915 334.164 88.6915 332.03C93.2248 330.83 95.6248 330.83 99.3581 332.03C105.491 334.03 127.891 334.03 135.225 332.03C143.225 329.764 148.291 325.097 150.158 318.03C150.958 314.697 151.625 301.364 151.758 288.297C151.758 269.364 152.158 265.23 153.358 267.764C154.825 270.83 154.958 270.83 156.425 265.097L157.891 259.23L160.558 264.964L163.225 270.83L164.158 266.03C165.225 260.164 166.825 259.897 168.958 265.23C170.958 270.03 172.958 270.43 172.958 266.03C172.958 259.764 175.491 261.23 177.891 268.697L180.158 276.164L181.358 272.03C182.425 267.63 184.958 267.497 184.958 272.03C184.958 276.564 187.225 274.697 190.158 267.63C192.425 262.164 193.358 261.097 194.291 262.564C194.958 263.63 195.625 265.63 195.625 266.83C195.625 271.097 198.291 270.697 200.558 266.03C201.758 263.364 203.225 261.23 203.758 261.23C204.291 261.23 205.491 263.497 206.425 266.164L208.025 271.097L211.091 265.097L214.025 259.23L215.491 263.23C216.291 265.364 217.625 268.43 218.291 269.897C218.958 271.364 219.625 283.23 219.891 296.164C220.291 323.23 220.958 324.83 232.158 330.43C237.758 333.23 239.891 333.497 253.358 333.23C273.491 332.83 274.425 332.83 288.958 333.23C305.625 333.764 314.025 331.764 319.758 325.764L324.291 321.097L324.691 278.564L325.091 236.164L330.425 235.23C333.358 234.697 336.158 234.697 336.558 235.097C336.958 235.497 338.691 240.164 340.558 245.364C342.291 250.697 344.825 256.564 346.158 258.43C348.025 261.097 348.825 265.764 349.625 277.23C351.225 303.364 356.291 320.697 365.625 331.764C373.091 340.43 387.491 344.03 392.958 338.564C397.091 334.43 396.291 330.297 390.425 325.764C380.425 318.297 374.025 305.497 372.158 289.497L371.358 281.364L381.758 284.83C394.825 288.964 424.158 290.564 440.425 288.03C483.225 281.097 511.891 256.297 524.425 215.23C527.758 204.03 527.891 174.697 524.558 162.564C521.225 150.297 513.625 134.564 510.958 134.564C509.491 134.564 508.958 135.364 509.625 137.097C514.958 154.297 517.225 187.764 513.758 203.497C511.091 216.697 504.958 228.964 496.558 238.03C480.025 256.297 449.891 269.63 421.625 271.497C406.558 272.43 396.025 270.564 384.958 264.83C377.091 260.83 376.291 260.03 376.425 256.43C376.691 249.764 383.091 238.297 396.291 220.297C417.758 191.364 424.691 174.83 425.891 150.564C427.225 124.697 421.491 104.297 409.491 92.4305C400.291 83.0971 388.958 78.5638 370.691 76.4305C366.025 76.0305 362.291 75.0971 362.291 74.5638C362.291 74.0305 360.691 70.0305 358.691 65.7638C356.425 60.5638 354.958 58.6972 354.691 60.1638C353.758 63.8972 352.558 63.0972 348.025 55.4972C345.758 51.6305 342.558 47.3638 341.091 46.0305C338.425 43.4972 338.291 43.4972 338.291 46.0305C338.291 47.8972 337.091 47.2305 332.558 42.8305C324.425 34.8305 322.158 35.3638 317.225 46.1638C315.091 51.2305 312.425 57.6305 311.625 60.4305L309.891 65.6305L305.225 59.7638C298.025 50.8305 288.025 41.8972 277.625 34.8305C268.558 28.6972 216.691 2.16382 210.558 0.430488C207.491 -0.369512 207.358 -0.369512 209.758 3.23049Z" fill="#FF5F1F"/>
</svg>
