<svg width="480" height="480" viewBox="0 0 480 480" fill="none" xmlns="http://www.w3.org/2000/svg">
<circle cx="240" cy="240" r="240" fill="#D9D9D9"/>
<path d="M229.571 88.4548C230.796 85.9906 232.85 84.052 235.37 82.9542C237.89 81.8681 240.713 81.7046 243.35 82.4871L244.679 82.9776L338.012 123.852C340.136 124.786 341.932 126.328 343.18 128.29L343.857 129.493L413.857 275.474C414.417 276.653 414.79 277.926 414.93 279.223L415 280.531V385.637C415 388.498 413.95 391.254 412.048 393.391C410.158 395.54 407.533 396.895 404.698 397.234L403.333 397.315H76.6693C75.0593 397.315 73.461 396.977 71.991 396.334C70.5094 395.692 69.191 394.746 68.0944 393.555C66.9977 392.375 66.1694 390.974 65.6444 389.456C65.1077 387.926 64.9094 386.314 65.0377 384.703L65.2244 383.348L100.224 208.171C100.597 206.314 101.414 204.562 102.615 203.091C103.817 201.619 105.357 200.463 107.107 199.716L108.46 199.225L185.192 177.281L229.571 88.4548ZM245.473 108.822L203.765 192.323C202.516 194.822 200.416 196.784 197.85 197.87L196.543 198.338L121.714 219.721L111.89 268.852H146.668V292.209H107.224L90.8909 373.958H169.99L170.002 350.601C170.002 332.476 177.025 315.052 189.578 301.996C202.143 288.927 219.281 281.255 237.376 280.577L240.001 280.531C258.108 280.531 275.514 287.561 288.558 300.127C301.612 312.705 309.277 329.86 309.954 347.974L310.001 350.601V373.958H391.667V283.193L384.784 268.852H333.334V245.495H373.584L356.667 210.191V210.46H275.001V187.103H345.584L324.701 143.507L245.473 108.822ZM240.001 303.888C228.031 303.888 216.516 308.501 207.836 316.757C199.168 325.014 193.988 336.295 193.393 348.266L193.335 350.601V373.958H286.668V350.601C286.668 339.028 282.374 327.863 274.628 319.28C266.869 310.684 256.206 305.289 244.703 304.121L242.335 303.946L240.001 303.888Z" fill="#FF5F1F"/>
</svg>
