<svg width="480" height="480" viewBox="0 0 480 480" fill="none" xmlns="http://www.w3.org/2000/svg">
<circle cx="240" cy="240" r="240" fill="#D9D9D9"/>
<path d="M243.15 417C211.15 417 182.817 412.333 158.15 403C133.484 393.667 113.817 379 99.1504 359C84.8171 339 76.9837 313.167 75.6504 281.5C75.3171 267.833 75.1504 253.167 75.1504 237.5C75.1504 221.833 75.3171 206.833 75.6504 192.5C76.9837 161.5 84.9837 136 99.6504 116C114.65 96 134.484 81.1667 159.15 71.5C184.15 61.8333 212.15 57 243.15 57C264.484 57 284.984 59.5 304.65 64.5C324.65 69.1666 342.65 76.6666 358.65 87C374.65 97.3333 387.317 110.667 396.65 127C406.317 143 411.317 162.333 411.65 185C411.65 188 410.484 190.667 408.15 193C406.15 195 403.65 196 400.65 196H298.65C293.317 196 289.317 195 286.65 193C284.317 190.667 282.15 186.833 280.15 181.5C276.484 170.833 271.484 163.667 265.15 160C258.817 156.333 251.317 154.5 242.65 154.5C231.65 154.5 222.817 157.5 216.15 163.5C209.817 169.167 206.317 179.667 205.65 195C204.65 222.333 204.65 250.333 205.65 279C206.317 294.333 209.817 305 216.15 311C222.817 316.667 231.65 319.5 242.65 319.5C251.317 319.5 258.817 317.5 265.15 313.5C271.817 309.5 276.817 302.5 280.15 292.5C281.817 286.833 283.984 283 286.65 281C289.317 279 293.317 278 298.65 278H400.65C403.65 278 406.15 279.167 408.15 281.5C410.484 283.5 411.65 286 411.65 289C411.317 311.667 406.317 331.167 396.65 347.5C387.317 363.5 374.65 376.667 358.65 387C342.65 397.333 324.65 405 304.65 410C284.984 414.667 264.484 417 243.15 417ZM275.15 85C271.484 83.3333 268.484 82.3333 266.15 82C263.817 81.3333 261.317 82.5 258.65 85.5C255.317 89.1667 253.15 92.3333 252.15 95C251.15 97.3333 251.984 100.667 254.65 105C257.317 109.667 259.817 112.667 262.15 114C264.817 115 268.65 114.833 273.65 113.5C279.317 112.5 283.317 111.167 285.65 109.5C288.317 107.5 289.984 103.667 290.65 98C290.984 93 289.65 90.1667 286.65 89.5C283.65 88.5 279.817 87 275.15 85ZM195.15 106.5C194.15 100.167 193.484 95 193.15 91C192.817 87 189.484 84.5 183.15 83.5C175.817 82.1667 170.317 82.5 166.65 84.5C163.317 86.5 159.984 90.8333 156.65 97.5C152.984 104.167 151.484 109.5 152.15 113.5C153.15 117.167 156.317 121.5 161.65 126.5C166.317 131.5 170.317 133.667 173.65 133C177.317 132 182.15 130 188.15 127C192.817 124.333 195.317 121.667 195.65 119C195.984 116 195.817 111.833 195.15 106.5ZM325.15 91.5C324.15 88.8333 322.984 87.1666 321.65 86.5C320.317 85.8333 318.317 85.6666 315.65 86C313.317 86.3333 311.984 87.1667 311.65 88.5C311.317 89.5 310.817 91.1666 310.15 93.5C309.817 95.8333 309.317 97.6666 308.65 99C308.317 100.333 309.15 101.667 311.15 103C313.484 104.667 315.484 105.667 317.15 106C318.817 106 320.65 105 322.65 103C324.984 101 326.15 99.3333 326.15 98C326.484 96.3333 326.15 94.1667 325.15 91.5ZM345.15 95C342.817 94.6666 340.984 95 339.65 96C338.65 96.6666 337.65 98 336.65 100C335.317 102.667 334.317 104.833 333.65 106.5C333.317 107.833 334.15 109.5 336.15 111.5C337.817 113.167 339.317 113.5 340.65 112.5C341.984 111.167 343.817 110 346.15 109C348.15 108 349.817 107.333 351.15 107C352.484 106.333 352.984 104.833 352.65 102.5C351.984 98.5 349.484 96 345.15 95ZM235.65 98L230.65 95L227.15 98.5L228.15 103L232.65 102L235.65 98ZM371.15 122L367.15 124.5L368.65 128.5L372.65 129.5L374.65 125L371.15 122ZM303.15 132.5L296.65 134L297.65 140L302.65 142L305.65 137.5L303.15 132.5ZM344.65 134C342.317 133.667 340.484 133.5 339.15 133.5C337.817 133.5 336.65 134.667 335.65 137C334.317 139.333 333.484 141.333 333.15 143C333.15 144.333 334.15 146.167 336.15 148.5C337.817 150.167 339.317 150.667 340.65 150C342.317 149 344.317 148 346.65 147C348.65 146 350.15 145.167 351.15 144.5C352.15 143.5 352.484 142 352.15 140C351.817 137.667 350.984 136.167 349.65 135.5C348.65 134.833 346.984 134.333 344.65 134ZM141.15 135L134.65 134.5L133.65 142L139.65 142.5L144.15 139.5L141.15 135ZM372.65 157L368.65 152.5L361.65 155L363.15 162.5L369.65 162L372.65 157ZM187.65 166.5L183.65 168L184.65 172.5L189.15 174L191.65 169L187.65 166.5ZM385.15 169.5L379.15 169L377.15 174.5L381.15 178L384.65 174.5L385.15 169.5ZM131.15 174C130.15 171.333 128.484 170.167 126.15 170.5C124.15 170.833 122.817 172.333 122.15 175C121.817 176.667 121.484 178 121.15 179C121.15 180 121.817 180.833 123.15 181.5C125.15 182.5 126.65 183.167 127.65 183.5C128.984 183.833 130.317 183.333 131.65 182C133.317 180.667 133.817 179.5 133.15 178.5C132.817 177.5 132.15 176 131.15 174ZM306.65 173L302.65 171L301.65 175.5L303.65 180L308.15 177L306.65 173ZM160.15 184C157.484 184 155.317 184 153.65 184C151.984 183.667 150.65 184.833 149.65 187.5C148.65 190.5 148.484 192.667 149.15 194C150.15 195.333 151.817 197 154.15 199C156.15 200.667 157.817 201.167 159.15 200.5C160.484 199.5 162.15 198.167 164.15 196.5C166.817 194.833 167.65 192.333 166.65 189C165.65 185.667 163.484 184 160.15 184ZM105.65 202.5C104.317 199.833 103.15 197.833 102.15 196.5C101.484 195.167 99.6504 194.667 96.6504 195C93.6504 195.333 91.6504 196.167 90.6504 197.5C89.6504 198.833 88.8171 201 88.1504 204C87.8171 206.667 88.1504 208.5 89.1504 209.5C90.4837 210.167 92.3171 211.167 94.6504 212.5C96.9837 213.833 98.8171 214.833 100.15 215.5C101.484 215.833 103.15 215.167 105.15 213.5C107.15 211.5 107.984 209.833 107.65 208.5C107.317 207.167 106.65 205.167 105.65 202.5ZM174.15 230.5C169.15 229.833 165.15 229.333 162.15 229C159.484 228.667 156.984 230.667 154.65 235C151.984 240 150.65 244 150.65 247C150.984 250 153.15 253.667 157.15 258C161.15 262 164.65 264.333 167.65 265C170.984 265.667 175.317 264.667 180.65 262C185.65 259.667 188.484 257.167 189.15 254.5C190.15 251.5 190.317 247.167 189.65 241.5C188.984 236.833 187.317 234.167 184.65 233.5C182.317 232.5 178.817 231.5 174.15 230.5ZM134.65 250C131.65 247.333 128.984 246 126.65 246C124.65 245.667 121.984 246.667 118.65 249C114.984 251.333 112.484 253.5 111.15 255.5C110.15 257.167 110.15 260.167 111.15 264.5C112.484 269.5 113.817 273.333 115.15 276C116.484 278.333 119.817 279.667 125.15 280C130.484 280.333 133.984 279.5 135.65 277.5C137.65 275.167 139.65 271.5 141.65 266.5C143.317 262.167 143.317 259 141.65 257C140.317 255 137.984 252.667 134.65 250ZM108.15 305C106.484 303.667 104.65 303.667 102.65 305C101.65 306 100.817 306.833 100.15 307.5C99.4837 308.167 99.4837 309.167 100.15 310.5C100.817 312.833 102.65 314 105.65 314C107.984 314 109.65 312.667 110.65 310C110.984 308 110.15 306.333 108.15 305ZM306.65 323.5C304.65 319.167 302.817 316.333 301.15 315C299.484 313.333 296.484 312.667 292.15 313C287.15 313.667 283.65 314.833 281.65 316.5C279.65 317.833 278.15 320.833 277.15 325.5C275.817 330.5 275.484 334.333 276.15 337C277.15 339.667 279.984 342.333 284.65 345C288.984 347.667 292.317 348.5 294.65 347.5C297.317 346.167 300.484 343.833 304.15 340.5C307.15 337.5 308.65 335 308.65 333C308.984 330.667 308.317 327.5 306.65 323.5ZM164.65 327C161.984 327 160.15 327.5 159.15 328.5C158.15 329.167 157.15 330.833 156.15 333.5C155.15 336.5 154.484 338.833 154.15 340.5C154.15 342.167 155.317 343.833 157.65 345.5C160.65 347.833 162.984 349.333 164.65 350C166.65 350.333 169.15 349.5 172.15 347.5C175.484 345.5 177.317 343.5 177.65 341.5C177.984 339.5 177.65 336.667 176.65 333C175.65 329.667 174.15 327.833 172.15 327.5C170.484 327.167 167.984 327 164.65 327ZM355.15 340L353.65 333L345.65 336L346.65 344H353.15L355.15 340ZM223.15 341.5C221.484 340.833 220.15 340.167 219.15 339.5C218.15 338.833 216.984 339.333 215.65 341C213.317 343.667 213.317 346.5 215.65 349.5C216.65 351.167 217.65 351.833 218.65 351.5C219.65 350.833 220.984 350.333 222.65 350C224.317 349.333 225.484 348.833 226.15 348.5C227.15 348.167 227.65 347.167 227.65 345.5C227.65 344.167 227.317 343.333 226.65 343C225.984 342.333 224.817 341.833 223.15 341.5ZM249.65 356.5C246.317 354.5 243.317 354.667 240.65 357C239.317 358.333 238.817 359.667 239.15 361C239.484 362 240.15 363.5 241.15 365.5C242.15 367.833 243.984 368.833 246.65 368.5C249.317 368.167 250.984 366.667 251.65 364C251.984 362 252.15 360.5 252.15 359.5C252.15 358.5 251.317 357.5 249.65 356.5ZM313.65 355C309.984 354.667 307.317 355.333 305.65 357C304.317 358.333 302.984 360.667 301.65 364C300.317 366.667 300.317 368.667 301.65 370C303.317 371 305.317 372.5 307.65 374.5C309.317 376.167 310.817 377.167 312.15 377.5C313.484 377.833 315.317 377.333 317.65 376C320.317 374.333 322.317 373 323.65 372C324.984 370.667 325.15 368.5 324.15 365.5C323.484 361.833 322.484 359.333 321.15 358C319.817 356.333 317.317 355.333 313.65 355ZM344.65 361C343.317 360 342.15 359.167 341.15 358.5C340.484 357.833 339.484 358 338.15 359C336.15 360.667 335.817 363.167 337.15 366.5C337.817 368.5 339.65 369.5 342.65 369.5C344.65 369.5 346.15 369.5 347.15 369.5C348.15 369.167 348.817 368.167 349.15 366.5C349.817 364.833 349.65 363.833 348.65 363.5C347.65 362.833 346.317 362 344.65 361ZM211.15 382.5C207.484 381.167 204.484 381.833 202.15 384.5C201.15 386.167 200.817 387.5 201.15 388.5C201.817 389.5 202.65 391 203.65 393C205.65 396 207.984 397 210.65 396C213.984 395.333 215.65 393.167 215.65 389.5C215.65 385.833 214.15 383.5 211.15 382.5ZM292.65 386.5C290.984 383.833 288.984 382.667 286.65 383C284.317 383.667 282.484 384.167 281.15 384.5C279.817 384.833 278.984 386.167 278.65 388.5C278.317 391.167 278.65 393.167 279.65 394.5C280.65 395.5 282.317 396.5 284.65 397.5C287.317 398.5 289.317 399 290.65 399C291.984 398.667 293.484 397.5 295.15 395.5C296.817 393.833 297.15 392.5 296.15 391.5C295.15 390.167 293.984 388.5 292.65 386.5Z" fill="#FF6E07"/>
</svg>
