<svg width="460" height="370" viewBox="0 0 460 370" fill="none" xmlns="http://www.w3.org/2000/svg">
<path d="M320 370H264V237.5L320 250V370Z" fill="#AF2B12"/>
<path d="M144 260H88V370H144V260Z" fill="#FF5F1F"/>
<path d="M176 48.46L60.23 83.67C25.37 94.28 0 126.67 0 165V252.5C0 268.403 0 280 0 280V370H56V280H176L196 164.23L176 48.46Z" fill="#FF5F1F"/>
<path d="M409.98 66.33C409.98 65.89 410 65.45 410 65C410 29.1 380.9 0 345 0C338.41 0 332.05 0.980001 326.06 2.81L176 48.46V370H232V280L320 250V180L409.98 66.33Z" fill="#AF2B12"/>
<path d="M280.898 65C264.398 65 250.898 78.5 250.898 95V126.96L320 150L340 107.5L320 65H280.898Z" fill="#FF5F1F"/>
<path d="M410 65H320V180H379.98L380 280C380 288.27 373.27 295 365 295C356.73 295 350 288.27 350 280V250H320V280C320 304.81 340.19 325 365 325C389.81 325 410 304.81 410 280L409.99 180H410V65Z" fill="#AF2B12"/>
<path d="M405 255C374.673 255 350 230.327 350 200V180H380V200C380 213.785 391.215 225 405 225C418.785 225 430 213.785 430 200V110H460V200C460 230.327 435.327 255 405 255Z" fill="#FF5F1F"/>
</svg>
