<svg width="1302" height="882" viewBox="0 0 1302 882" fill="none" xmlns="http://www.w3.org/2000/svg">
<path d="M1301.62 731.514C1301.62 537.505 1233.05 351.441 1111 214.256C988.951 77.0701 823.415 1.46473e-05 650.81 0C478.204 -1.46473e-05 312.668 77.07 190.618 214.255C68.5673 351.441 2.60627e-05 537.504 0 731.514L1301.62 731.514Z" fill="#FF7A00"/>
<path d="M538.624 341.764V255.923C538.572 256.085 538.624 255.752 538.624 255.923C544.335 237.97 548.763 226.89 561.037 212.507C571.983 199.682 579.85 193.192 595.073 185.943C606.933 180.295 614.455 178.745 627.448 176.811C642.519 174.569 651.529 173.799 666.465 176.811C681.279 179.8 689.364 183.715 702.161 191.754C718.661 202.12 727.306 210.237 737.857 226.62C744.563 237.034 747.245 243.714 751.057 255.422C751.057 255.248 751.111 255.588 751.057 255.422L751.139 341.025C751.139 341.65 751.473 342.179 752.028 342.466C756.794 344.926 779.623 356.868 793.476 366.913C810.019 378.908 818.432 386.951 832.492 401.779C847.577 417.687 855.1 427.6 867.358 445.776C875.814 458.314 881.931 464.837 887.281 478.982C889.787 485.604 891.3 489.4 892.262 496.414C893.188 503.159 893.533 507.159 892.262 513.847C890.959 520.708 889.362 524.553 885.621 530.45C883.397 533.956 881.873 535.774 878.98 538.751C874.958 542.892 872.315 544.925 867.358 547.883C862.496 550.784 859.666 554.595 854.076 553.694C849.275 552.92 848.102 549.006 844.114 546.223C842.079 544.802 838.492 542.495 835.656 540.7C835.276 540.496 834.301 539.9 832.492 538.751C830.033 537.19 832.328 538.592 835.656 540.7C837.227 541.543 828.635 535.707 826.681 534.601C822.221 532.074 819.199 531.705 814.229 530.45C809.612 529.285 802.849 528.447 799.91 528.116C799.078 528.022 798.441 527.331 798.42 526.494L797.664 496.237C797.643 495.392 798.255 494.665 799.088 494.522C801.59 494.093 806.749 493.068 810.069 491.438C810.075 491.435 810.082 491.431 810.088 491.427C815.713 487.336 819.293 480.156 815.99 474.035C815.478 473.085 814.894 472.218 814.229 471.51C810.354 467.383 806.578 466.289 800.947 465.699C799.982 465.598 798.741 465.598 797.739 465.623C796.779 465.647 795.966 464.885 795.966 463.925V429.275C795.966 429.207 795.97 429.145 795.978 429.078C796.104 428.001 797.213 418.051 795.966 411.74C795.311 408.42 794.772 406.566 793.476 403.439C791.752 399.278 790.285 397.141 787.665 393.477C784.062 388.439 781.657 385.789 776.873 381.855L776.652 381.673C772.618 378.355 770.174 376.346 765.251 374.384C759.554 372.114 749.806 371.9 749.487 371.894L749.464 371.894H535.409C535.339 371.894 535.271 371.898 535.201 371.907C534.309 372.026 527.749 372.932 523.681 374.384C518.077 376.386 515.085 378.187 510.399 381.855C505.522 385.674 502.779 388.157 499.607 393.477C497.449 397.097 496.638 399.394 495.457 403.439C494.612 406.332 493.927 410.85 493.813 411.625C493.802 411.703 493.796 411.78 493.796 411.859V465.525C493.796 465.624 493.721 465.706 493.623 465.716L486.232 466.417C482.105 466.809 478.394 469.1 476.195 472.615C473.723 476.567 473.405 481.585 475.915 485.513C477.283 487.654 478.731 489.549 479.684 489.773C483.137 490.585 488.107 491.091 490.595 491.309C491.463 491.385 492.136 492.11 492.136 492.982V525.021C492.136 525.775 491.629 526.433 490.9 526.623C488.925 527.137 484.993 528.148 482.174 528.79C477.339 529.89 474.454 529.795 469.722 531.28C465.701 532.542 463.486 533.461 459.761 535.431C455.627 537.616 453.396 539.085 449.799 542.072C446.624 544.708 445.852 547.398 442.328 549.543C440.219 550.827 438.968 551.735 436.517 552.034C434.241 552.311 432.916 551.812 430.706 551.203C428.44 550.58 427.202 549.928 425.204 548.876L424.895 548.713C420.189 546.238 417.901 544.133 414.103 540.412C411.509 537.87 408.564 533.926 406.737 531.35C405.537 529.658 404.411 527.916 403.397 526.107C402.243 524.046 400.75 521.168 399.991 518.828C398.179 513.243 398.364 509.757 398.33 503.886C398.295 497.692 398.816 494.194 399.991 488.113C400.945 483.172 401.644 480.409 403.311 475.661C405.54 469.315 407.42 465.934 410.653 460.122L410.783 459.888C415.765 450.929 419.527 446.471 425.725 438.305C431.572 430.601 435.08 426.447 441.498 419.212C452.449 406.863 459.146 400.403 471.383 389.327C478.03 383.309 481.779 379.943 488.815 374.384C496.652 368.193 501.134 364.789 509.569 359.442C516.803 354.856 520.965 352.408 528.662 348.65C531.439 347.294 535.518 345.494 537.116 344.795C537.548 344.606 537.879 344.243 538.028 343.796L538.539 342.264C538.595 342.095 538.624 341.943 538.624 341.764Z" fill="black"/>
<path d="M596.21 278.328C588.24 287.183 594.217 300.908 606.171 300.908C617.018 300.908 623.438 285.634 615.469 277.886C610.82 273.015 600.637 273.458 596.21 278.328Z" fill="#FF7A00"/>
<path d="M673.246 278.771C667.934 284.084 667.712 289.397 672.361 296.038C678.781 305.336 695.383 299.58 695.383 287.847C695.383 275.672 681.88 270.138 673.246 278.771Z" fill="#FF7A00"/>
<path d="M512.888 412.183C512.888 399.383 523.264 389.006 536.065 389.006H755.355C768.155 389.006 778.532 399.383 778.532 412.183V512.022C778.532 524.823 768.155 535.199 755.355 535.199H536.065C523.264 535.199 512.888 524.823 512.888 512.022V412.183Z" fill="black"/>
<path d="M668.954 462.058C668.954 475.812 657.804 486.962 644.049 486.962C630.295 486.962 619.145 475.812 619.145 462.058C619.145 448.304 630.295 437.154 644.049 437.154C657.804 437.154 668.954 448.304 668.954 462.058Z" fill="#FF7A00"/>
<path d="M557.39 672.668L651.127 646.329C653.008 645.8 655.003 645.837 656.864 646.433L735.26 671.579C739.73 673.013 744.396 673.743 749.09 673.743H757.197C761.881 673.743 766.436 672.201 770.157 669.356C775.435 665.319 778.532 658.955 778.532 652.309C778.532 647.927 777.203 643.585 774.72 639.974L774.504 639.66C771.224 634.889 766.258 631.538 760.606 630.282L756.59 629.389C755.179 629.076 753.834 628.519 752.615 627.743L751.076 626.764C747.62 624.564 745.896 620.447 746.754 616.441C747.421 613.331 749.554 610.738 752.477 609.485L755.236 608.303C757.98 607.127 761.004 606.763 763.948 607.254L768.979 608.092C772.556 608.688 776.01 609.869 779.203 611.589L781.492 612.822C783.937 614.138 786.21 615.75 788.26 617.622L791.241 620.344C799.179 627.591 810.61 629.552 820.51 625.364C824.031 623.874 827.203 621.667 829.823 618.882L831.614 616.98C836.535 611.752 839.969 605.226 841.526 598.217C843.204 590.666 842.697 582.718 840.034 575.455L839.416 573.77C836.514 565.855 831.517 558.877 824.959 553.58L824.682 553.356C817.324 547.413 808.371 543.785 798.952 542.928L796.162 542.675C789.442 542.064 782.668 542.649 776.153 544.403L764.419 547.562L619.717 592.526C618.43 592.926 617.043 592.335 616.44 591.129C616.053 590.355 616.053 589.443 616.44 588.669L617.193 587.163C617.385 586.778 617.485 586.355 617.485 585.926C617.485 584.812 616.818 583.807 615.791 583.376L552.174 556.628C547.021 554.461 541.706 552.703 536.277 551.37L505.97 543.926C500.131 542.492 494.057 542.291 488.136 543.336C484.726 543.937 481.401 544.946 478.232 546.341L470.589 549.704C465.098 552.12 460.215 555.729 456.294 560.269C449.961 567.601 446.477 576.967 446.477 586.656V587.332C446.477 593.4 447.785 599.395 450.313 604.911L450.589 605.511C453.878 612.688 458.988 618.878 465.412 623.466L470.088 626.806C472.039 628.2 474.235 629.214 476.562 629.796C482.672 631.323 489.142 629.742 493.86 625.569L502.9 617.572C506.213 614.641 510.007 612.303 514.114 610.66L519.386 608.551C522.733 607.213 526.391 606.855 529.933 607.519L533.235 608.138C536.149 608.684 538.719 610.383 540.364 612.85C542.828 616.546 542.797 621.407 540.333 625.104C538.716 627.529 536.194 629.252 533.342 629.852L529.347 630.693C524.606 631.692 520.352 634.288 517.297 638.048L515.553 640.195C512.755 643.638 511.227 647.941 511.227 652.378C511.227 658.966 514.584 665.1 520.133 668.651L523.8 670.998C529.091 674.384 535.389 675.84 541.63 675.12L549.617 674.198C552.245 673.895 554.844 673.384 557.39 672.668Z" fill="black"/>
<path fill-rule="evenodd" clip-rule="evenodd" d="M611.11 259.504H567.19C559.206 259.504 552.734 265.976 552.734 273.96V298.665C552.734 306.648 559.206 313.12 567.19 313.12H611.11C619.093 313.12 625.565 306.648 625.565 298.665V273.96C625.565 265.976 619.093 259.504 611.11 259.504ZM567.19 247.882C552.788 247.882 541.112 259.558 541.112 273.96V298.665C541.112 313.067 552.788 324.742 567.19 324.742H611.11C625.512 324.742 637.187 313.067 637.187 298.665V273.96C637.187 259.558 625.512 247.882 611.11 247.882H567.19Z" fill="#FF7A00"/>
<path fill-rule="evenodd" clip-rule="evenodd" d="M720.909 259.504H676.989C669.006 259.504 662.534 265.976 662.534 273.96V298.665C662.534 306.648 669.006 313.12 676.989 313.12H720.909C728.893 313.12 735.365 306.648 735.365 298.665V273.96C735.365 265.976 728.893 259.504 720.909 259.504ZM676.989 247.882C662.587 247.882 650.912 259.558 650.912 273.96V298.665C650.912 313.067 662.587 324.742 676.989 324.742H720.909C735.311 324.742 746.986 313.067 746.986 298.665V273.96C746.986 259.558 735.311 247.882 720.909 247.882H676.989Z" fill="#FF7A00"/>
<path fill-rule="evenodd" clip-rule="evenodd" d="M650.912 286.312H637.187V273.96H650.912V286.312Z" fill="#FF7A00"/>
<path d="M1215.51 878.316H1184.98L1226.47 768.699H1257.79L1299.29 878.316H1268.75L1261.71 858.742H1222.56L1215.51 878.316ZM1229.61 838.384H1254.66L1242.13 801.584L1229.61 838.384Z" fill="#FF7A00"/>
<path d="M1177.07 878.316H1147.32L1109.74 812.546V878.316H1081.55V768.699H1111.3L1148.89 834.469V768.699H1177.07V878.316Z" fill="#FF7A00"/>
<path d="M968.845 768.699H1034.61C1045.58 768.699 1053.51 771.205 1058.42 776.216C1063.43 781.123 1065.93 789.057 1065.93 800.018V814.112C1065.93 822.777 1064.47 829.511 1061.55 834.313C1058.73 839.115 1054.19 842.299 1047.93 843.865L1067.5 878.316H1036.96L1018.96 845.431H997.032V878.316H968.845V768.699ZM1037.75 800.018C1037.75 793.755 1034.61 790.623 1028.35 790.623H997.032V823.508H1028.35C1034.61 823.508 1037.75 820.376 1037.75 814.112V800.018Z" fill="#FF7A00"/>
<path d="M956.354 878.316H869.444V768.699H956.354V790.623H897.631V811.763H943.826V833.686H897.631V856.393H956.354V878.316Z" fill="#FF7A00"/>
<path d="M804.463 845.431L831.084 768.699H861.62L820.123 878.316H788.804L747.306 768.699H777.842L804.463 845.431Z" fill="#FF7A00"/>
<path d="M645.562 768.699H711.332C722.293 768.699 730.228 771.205 735.134 776.216C740.145 781.123 742.651 789.057 742.651 800.018V814.112C742.651 822.777 741.189 829.511 738.266 834.313C735.447 839.115 730.906 842.299 724.642 843.865L744.217 878.316H713.681L695.672 845.431H673.749V878.316H645.562V768.699ZM714.464 800.018C714.464 793.755 711.332 790.623 705.068 790.623H673.749V823.508H705.068C711.332 823.508 714.464 820.376 714.464 814.112V800.018Z" fill="#FF7A00"/>
<path d="M553.96 878.316H523.424L564.922 768.699H596.241L637.738 878.316H607.202L600.156 858.742H561.007L553.96 878.316ZM568.054 838.384H593.109L580.581 801.584L568.054 838.384Z" fill="#FF7A00"/>
<path d="M521.84 876.75C498.559 878.838 479.246 879.882 463.9 879.882C453.669 879.882 446.152 877.481 441.35 872.678C436.548 867.876 434.147 860.36 434.147 850.129V800.018C434.147 789.057 436.6 781.123 441.507 776.216C446.518 771.205 454.504 768.699 465.466 768.699H521.84V790.623H471.729C465.466 790.623 462.334 793.755 462.334 800.018V850.129C462.334 852.53 463.012 854.461 464.369 855.923C465.831 857.28 467.658 857.959 469.85 857.959C472.043 857.959 474.444 857.959 477.054 857.959C479.664 857.854 482.378 857.75 485.197 857.645C488.015 857.541 490.834 857.437 493.653 857.332C496.576 857.228 500.282 857.019 504.771 856.706C509.364 856.393 515.054 856.027 521.84 855.61V876.75Z" fill="#FF7A00"/>
<path d="M424.788 878.316H337.878V768.699H424.788V790.623H366.065V811.763H412.26V833.686H366.065V856.393H424.788V878.316Z" fill="#FF7A00"/>
<path d="M286.244 768.699C298.041 768.699 306.967 771.779 313.022 777.939C319.181 783.994 322.261 792.919 322.261 804.716V842.299C322.261 854.096 319.181 863.074 313.022 869.233C306.967 875.288 298.041 878.316 286.244 878.316H225.172V768.699H286.244ZM294.074 804.716C294.074 795.321 289.376 790.623 279.98 790.623H253.359V856.393H279.98C289.376 856.393 294.074 851.695 294.074 842.299V804.716Z" fill="#FF7A00"/>
<path d="M181.252 798.452C181.252 792.189 178.12 789.057 171.856 789.057H145.235C138.971 789.057 135.84 792.189 135.84 798.452V848.563C135.84 854.827 138.971 857.958 145.235 857.958H171.856C178.12 857.958 181.252 854.827 181.252 848.563V798.452ZM209.439 848.563C209.439 859.524 206.934 867.511 201.923 872.522C197.016 877.428 189.082 879.882 178.12 879.882H138.971C128.01 879.882 120.023 877.428 115.012 872.522C110.106 867.511 107.652 859.524 107.652 848.563V798.452C107.652 787.491 110.106 779.557 115.012 774.65C120.023 769.639 128.01 767.133 138.971 767.133H178.12C189.082 767.133 197.016 769.639 201.923 774.65C206.934 779.557 209.439 787.491 209.439 798.452V848.563Z" fill="#FF7A00"/>
<path d="M98.2384 876.75C74.958 878.838 55.6446 879.882 40.2983 879.882C30.0675 879.882 22.5509 877.481 17.7487 872.678C12.9464 867.876 10.5453 860.36 10.5453 850.129V800.018C10.5453 789.057 12.9986 781.123 17.9052 776.216C22.9163 771.205 30.9026 768.699 41.8643 768.699H98.2384V790.623H48.1281C41.8643 790.623 38.7324 793.755 38.7324 800.018V850.129C38.7324 852.53 39.4109 854.461 40.7681 855.923C42.2296 857.28 44.0566 857.959 46.2489 857.959C48.4413 857.959 50.8424 857.959 53.4523 857.959C56.0622 857.854 58.7765 857.75 61.5952 857.645C64.4139 857.541 67.2326 857.437 70.0513 857.332C72.9744 857.228 76.6805 857.019 81.1696 856.706C85.763 856.393 91.4526 856.027 98.2384 855.61V876.75Z" fill="#FF7A00"/>
<path fill-rule="evenodd" clip-rule="evenodd" d="M1215.51 878.316L1222.56 858.742H1261.71L1268.75 878.316H1299.29L1257.79 768.699H1226.47L1184.98 878.316H1215.51ZM1260.85 859.965L1267.89 879.54H1301.06L1258.64 767.476H1225.63L1183.2 879.54H1216.37L1223.42 859.965H1260.85ZM1229.61 838.384L1242.13 801.584L1254.66 838.384H1229.61ZM1231.32 837.161H1252.95L1242.13 805.382L1231.32 837.161Z" fill="#FF7A00"/>
<path fill-rule="evenodd" clip-rule="evenodd" d="M1147.32 878.316H1177.07V768.699H1148.89V834.469L1111.3 768.699H1081.55V878.316H1109.74V812.546L1147.32 878.316ZM1110.96 817.154L1146.61 879.54H1178.3V767.476H1147.66V829.861L1112.01 767.476H1080.33V879.54H1110.96V817.154Z" fill="#FF7A00"/>
<path fill-rule="evenodd" clip-rule="evenodd" d="M1034.61 768.699H968.845V878.316H997.032V845.431H1018.96L1036.96 878.316H1067.5L1047.93 843.865C1048.34 843.762 1048.75 843.651 1049.14 843.533C1054.78 841.871 1058.92 838.798 1061.55 834.313C1064.47 829.511 1065.93 822.777 1065.93 814.112V800.018C1065.93 789.057 1063.43 781.123 1058.42 776.216C1053.51 771.205 1045.58 768.699 1034.61 768.699ZM1059.28 775.35C1054.04 770.007 1045.72 767.476 1034.61 767.476H967.621V879.54H998.256V846.655H1018.23L1036.24 879.54H1069.6L1049.76 844.625C1055.51 842.87 1059.83 839.656 1062.6 834.943C1065.68 829.872 1067.16 822.886 1067.16 814.112V800.018C1067.16 788.914 1064.63 780.589 1059.28 775.35ZM1028.35 790.623C1034.61 790.623 1037.75 793.755 1037.75 800.018V814.112C1037.75 820.376 1034.61 823.508 1028.35 823.508H997.032V790.623H1028.35ZM998.256 791.846V822.284H1028.35C1031.29 822.284 1033.28 821.549 1034.53 820.293C1035.79 819.038 1036.52 817.055 1036.52 814.112V800.018C1036.52 797.075 1035.79 795.092 1034.53 793.837C1033.28 792.581 1031.29 791.846 1028.35 791.846H998.256Z" fill="#FF7A00"/>
<path fill-rule="evenodd" clip-rule="evenodd" d="M956.354 878.316V856.393H897.631V833.686H943.826V811.763H897.631V790.623H956.354V768.699H869.444V878.316H956.354ZM898.854 791.846H957.578V767.476H868.22V879.54H957.578V855.169H898.854V834.91H945.05V810.539H898.854V791.846Z" fill="#FF7A00"/>
<path fill-rule="evenodd" clip-rule="evenodd" d="M804.463 845.431L777.842 768.699H747.306L788.804 878.316H820.123L861.62 768.699H831.084L804.463 845.431ZM804.463 841.698L830.213 767.476H863.392L820.968 879.54H787.958L745.534 767.476H778.713L804.463 841.698Z" fill="#FF7A00"/>
<path fill-rule="evenodd" clip-rule="evenodd" d="M711.332 768.699H645.562V878.316H673.749V845.431H695.672L713.681 878.316H744.217L724.642 843.865C725.056 843.762 725.463 843.651 725.861 843.533C731.499 841.871 735.634 838.798 738.266 834.313C741.189 829.511 742.651 822.777 742.651 814.112V800.018C742.651 789.057 740.145 781.123 735.134 776.216C730.228 771.205 722.293 768.699 711.332 768.699ZM739.317 834.94C736.547 839.654 732.231 842.87 726.482 844.625L746.319 879.54H712.956L694.947 846.655H674.973V879.54H644.338V767.476H711.332C722.435 767.476 730.76 770.007 735.999 775.35C741.343 780.589 743.875 788.914 743.875 800.018V814.112C743.875 822.884 742.4 829.87 739.317 834.94ZM705.068 790.623C711.332 790.623 714.464 793.755 714.464 800.018V814.112C714.464 820.376 711.332 823.508 705.068 823.508H673.749V790.623H705.068ZM674.973 791.846H705.068C708.011 791.846 709.994 792.581 711.25 793.837C712.505 795.092 713.24 797.075 713.24 800.018V814.112C713.24 817.055 712.505 819.038 711.25 820.293C709.994 821.549 708.011 822.284 705.068 822.284H674.973V791.846Z" fill="#FF7A00"/>
<path fill-rule="evenodd" clip-rule="evenodd" d="M553.96 878.316L561.007 858.742H600.156L607.202 878.316H637.738L596.241 768.699H564.922L523.424 878.316H553.96ZM599.296 859.965L606.342 879.54H639.51L597.086 767.476H564.077L521.652 879.54H554.82L561.867 859.965H599.296ZM568.054 838.384L580.581 801.584L593.109 838.384H568.054ZM569.763 837.161H591.4L580.581 805.381L569.763 837.161Z" fill="#FF7A00"/>
<path fill-rule="evenodd" clip-rule="evenodd" d="M463.9 879.882C479.246 879.882 498.559 878.838 521.84 876.75V855.61C521.428 855.635 521.02 855.66 520.616 855.685C514.367 856.071 509.086 856.412 504.771 856.706C500.282 857.019 496.576 857.228 493.653 857.332L485.197 857.645C482.378 857.75 479.664 857.854 477.054 857.959H469.85C467.658 857.959 465.831 857.28 464.369 855.923C463.012 854.461 462.334 852.53 462.334 850.129V800.018C462.334 793.755 465.466 790.623 471.729 790.623H521.84V768.699H465.466C454.504 768.699 446.518 771.205 441.507 776.216C436.6 781.123 434.147 789.057 434.147 800.018V850.129C434.147 860.36 436.548 867.876 441.35 872.678C446.152 877.481 453.669 879.882 463.9 879.882ZM465.236 855.057C464.149 853.869 463.557 852.268 463.557 850.129V800.018C463.557 797.075 464.292 795.092 465.548 793.837C466.803 792.581 468.786 791.846 471.729 791.846H523.063V767.476H465.466C454.353 767.476 445.981 770.011 440.641 775.351C435.402 780.59 432.923 788.914 432.923 800.018V850.129C432.923 860.522 435.359 868.418 440.485 873.544C445.61 878.669 453.506 881.105 463.9 881.105C479.296 881.105 498.649 880.058 521.949 877.969L523.063 877.869V854.308L521.765 854.388C514.977 854.806 509.285 855.171 504.688 855.485L504.686 855.485C500.204 855.798 496.513 856.006 493.609 856.109L485.151 856.422C482.34 856.527 479.633 856.631 477.029 856.735H469.85C467.951 856.735 466.442 856.162 465.236 855.057Z" fill="#FF7A00"/>
<path fill-rule="evenodd" clip-rule="evenodd" d="M424.788 878.316V856.393H366.065V833.686H412.26V811.763H366.065V790.623H424.788V768.699H337.878V878.316H424.788ZM367.288 791.846H426.011V767.476H336.654V879.54H426.011V855.169H367.288V834.91H413.484V810.539H367.288V791.846Z" fill="#FF7A00"/>
<path fill-rule="evenodd" clip-rule="evenodd" d="M313.022 777.939C306.967 771.779 298.041 768.699 286.244 768.699H225.172V878.316H286.244C298.041 878.316 306.967 875.288 313.022 869.233C319.181 863.074 322.261 854.096 322.261 842.299V804.716C322.261 792.919 319.181 783.994 313.022 777.939ZM313.887 777.074C307.529 770.61 298.241 767.476 286.244 767.476H223.948V879.54H286.244C298.24 879.54 307.527 876.459 313.887 870.099C320.348 863.638 323.485 854.302 323.485 842.299V804.716C323.485 792.719 320.351 783.433 313.887 777.074ZM279.98 790.623C289.376 790.623 294.074 795.321 294.074 804.716V842.299C294.074 851.695 289.376 856.393 279.98 856.393H253.359V790.623H279.98ZM254.583 791.846H279.98C284.49 791.846 287.647 792.973 289.685 795.011C291.724 797.05 292.85 800.207 292.85 804.716V842.299C292.85 846.808 291.724 849.965 289.685 852.004C287.647 854.042 284.49 855.169 279.98 855.169H254.583V791.846Z" fill="#FF7A00"/>
<path fill-rule="evenodd" clip-rule="evenodd" d="M114.147 873.387L114.138 873.378C108.91 868.038 106.429 859.67 106.429 848.563V798.452C106.429 787.348 108.908 779.024 114.147 773.785C119.486 768.445 127.858 765.91 138.971 765.91H178.12C189.224 765.91 197.549 768.441 202.788 773.785C208.131 779.024 210.663 787.349 210.663 798.452V848.563C210.663 859.676 208.127 868.048 202.788 873.387C197.549 878.626 189.224 881.105 178.12 881.105H138.971C127.864 881.105 119.496 878.625 114.156 873.396L114.147 873.387ZM201.923 774.65C197.016 769.639 189.082 767.133 178.12 767.133H138.971C128.01 767.133 120.023 769.639 115.012 774.65C110.106 779.557 107.652 787.491 107.652 798.452V848.563C107.652 859.524 110.106 867.511 115.012 872.522C120.023 877.428 128.01 879.882 138.971 879.882H178.12C189.082 879.882 197.016 877.428 201.923 872.522C206.934 867.511 209.439 859.524 209.439 848.563V798.452C209.439 787.491 206.934 779.557 201.923 774.65ZM178.038 792.271C176.782 791.015 174.8 790.28 171.856 790.28H145.235C142.292 790.28 140.309 791.015 139.054 792.271C137.798 793.526 137.063 795.509 137.063 798.452V848.563C137.063 851.506 137.798 853.489 139.054 854.744C140.309 856 142.292 856.735 145.235 856.735H171.856C174.8 856.735 176.782 856 178.038 854.744C179.293 853.489 180.028 851.506 180.028 848.563V798.452C180.028 795.509 179.293 793.526 178.038 792.271ZM171.856 789.057C178.12 789.057 181.252 792.189 181.252 798.452V848.563C181.252 854.827 178.12 857.958 171.856 857.958H145.235C138.971 857.958 135.84 854.827 135.84 848.563V798.452C135.84 792.189 138.971 789.057 145.235 789.057H171.856Z" fill="#FF7A00"/>
<path fill-rule="evenodd" clip-rule="evenodd" d="M40.2983 879.882C55.6446 879.882 74.958 878.838 98.2384 876.75V855.61C97.8265 855.635 97.4186 855.66 97.0147 855.685C90.7659 856.071 85.4842 856.412 81.1696 856.706C76.6805 857.019 72.9744 857.228 70.0513 857.332L61.5952 857.645C58.7765 857.75 56.0622 857.854 53.4523 857.959H46.2489C44.0566 857.959 42.2296 857.28 40.7681 855.923C39.4109 854.461 38.7324 852.53 38.7324 850.129V800.018C38.7324 793.755 41.8643 790.623 48.1281 790.623H98.2384V768.699H41.8643C30.9026 768.699 22.9163 771.205 17.9052 776.216C12.9986 781.123 10.5453 789.057 10.5453 800.018V850.129C10.5453 860.36 12.9464 867.876 17.7487 872.678C22.5509 877.481 30.0675 879.882 40.2983 879.882ZM41.6342 855.057C40.548 853.869 39.956 852.268 39.956 850.129V800.018C39.956 797.075 40.691 795.092 41.9466 793.837C43.2021 792.581 45.1848 791.846 48.128 791.846H99.4621V767.476H41.8643C30.7513 767.476 22.3792 770.011 17.04 775.351C11.8011 780.59 9.32159 788.914 9.32159 800.018V850.129C9.32159 860.522 11.758 868.418 16.8834 873.544C22.0087 878.669 29.905 881.105 40.2983 881.105C55.6947 881.105 75.0476 880.058 98.3477 877.969L99.4621 877.869V854.308L98.1633 854.388C91.3759 854.806 85.6834 855.171 81.0863 855.485L81.0844 855.485C76.6027 855.798 72.9117 856.006 70.0077 856.109L61.5499 856.422C58.7389 856.527 56.0315 856.631 53.4278 856.735H46.2489C44.3498 856.735 42.8406 856.162 41.6342 855.057Z" fill="#FF7A00"/>
</svg>
