<svg width="350" height="316" viewBox="0 0 350 316" fill="none" xmlns="http://www.w3.org/2000/svg">
<path d="M164.571 6.45478C165.796 3.99063 167.85 2.05199 170.37 0.954217C172.89 -0.131881 175.713 -0.295379 178.35 0.487079L179.679 0.977572L273.012 41.8522C275.135 42.7865 276.932 44.3281 278.181 46.29L278.857 47.4929L348.857 193.474C349.417 194.653 349.79 195.926 349.93 197.223L350 198.531V303.637C350 306.498 348.95 309.254 347.048 311.391C345.158 313.54 342.533 314.895 339.698 315.234L338.333 315.315H11.6693C10.0593 315.315 8.461 314.977 6.99101 314.334C5.50935 313.692 4.19103 312.746 3.09437 311.555C1.99771 310.375 1.16938 308.974 0.644387 307.456C0.107724 305.926 -0.0906082 304.314 0.0377242 302.703L0.224387 301.348L35.2238 126.171C35.5971 124.314 36.4138 122.562 37.6155 121.091C38.8171 119.619 40.3571 118.463 42.1071 117.716L43.4604 117.225L120.192 95.2812L164.571 6.45478ZM180.473 26.822L138.765 110.323C137.516 112.822 135.416 114.784 132.85 115.87L131.543 116.338L56.7137 137.721L46.8904 186.852H81.6685V210.209H42.2238L25.8909 291.958H104.99L105.002 268.601C105.002 250.476 112.025 233.052 124.578 219.996C137.143 206.927 154.281 199.255 172.376 198.577L175.001 198.531C193.108 198.531 210.514 205.561 223.558 218.127C236.612 230.705 244.277 247.86 244.954 265.974L245.001 268.601V291.958H326.667V201.193L319.784 186.852H268.334V163.495H308.584L291.667 128.191V128.46H210.001V105.103H280.584L259.701 61.5071L180.473 26.822ZM175.001 221.888C163.031 221.888 151.516 226.501 142.836 234.757C134.168 243.014 128.988 254.295 128.393 266.266L128.335 268.601V291.958H221.668V268.601C221.668 257.028 217.374 245.863 209.628 237.28C201.869 228.684 191.206 223.289 179.703 222.121L177.335 221.946L175.001 221.888Z" fill="#FF5F1F"/>
</svg>
